<?xml version="1.0" encoding="utf-8"?>
<!-- Generator: Adobe Illustrator 21.1.0, SVG Export Plug-In . SVG Version: 6.00 Build 0)  -->
<svg version="1.1"
	 id="Layer_1" xmlns:cc="http://creativecommons.org/ns#" xmlns:dc="http://purl.org/dc/elements/1.1/" xmlns:inkscape="http://www.inkscape.org/namespaces/inkscape" xmlns:rdf="http://www.w3.org/1999/02/22-rdf-syntax-ns#" xmlns:sodipodi="http://sodipodi.sourceforge.net/DTD/sodipodi-0.dtd" xmlns:svg="http://www.w3.org/2000/svg"
	 xmlns="http://www.w3.org/2000/svg" xmlns:xlink="http://www.w3.org/1999/xlink" x="0px" y="0px" viewBox="0 0 422.3 389.3"
	 style="enable-background:new 0 0 422.3 389.3;" xml:space="preserve">
<g transform="translate(-126.84453,-355.16538)">
	<path d="M468.8,355.2c-12.1,0-24.2,4.6-33.4,13.8l67,66.9c18.4-18.4,18.4-48.3-0.2-66.8C493,359.8,480.9,355.2,468.8,355.2
		L468.8,355.2z M422.5,381.8L164.3,640l66.8,66.8l258.2-258.2L422.5,381.8L422.5,381.8z M535.5,459.5c-3.5,0-6.9,1.3-9.5,4
		L515,474.3l-13-13l-54.9,54.9l13,13.1l-65.8,65.8l-9.1-9.1c-3.6-3.6-9.5-3.6-13.1,0s-3.6,9.5,0,13l28.4,28.3l13-13l65.8-65.8
		l54.9-54.9l10.9-10.8c5.3-5.3,5.3-13.9,0-19.2C542.5,460.9,539,459.5,535.5,459.5L535.5,459.5z M151.3,653.2l-24.4,91.3l91.3-24.5
		L151.3,653.2z"/>
</g>
</svg>
