<?xml version="1.0" encoding="utf-8"?>
<!-- Generator: Adobe Illustrator 21.1.0, SVG Export Plug-In . SVG Version: 6.00 Build 0)  -->
<svg version="1.1" id="Layer_1" xmlns="http://www.w3.org/2000/svg" xmlns:xlink="http://www.w3.org/1999/xlink" x="0px" y="0px"
	 viewBox="0 0 67.8 69" style="enable-background:new 0 0 67.8 69;" xml:space="preserve">
<g>
	<rect x="20.4" y="21.4" width="27" height="4"/>
	<rect x="20.4" y="32.1" width="27" height="4"/>
	<rect x="20.4" y="42.7" width="27" height="4"/>
	<path d="M0,33.9c0,18.7,15.2,33.9,33.9,33.9c3.8,0,7.6-0.6,11.2-1.9l18,3.1c0.1,0,0.2,0,0.3,0c0.6,0,1.2-0.3,1.6-0.8
		c0.5-0.5,0.6-1.3,0.3-2l-4.8-11.4c2.1-2.6,3.8-5.5,5-8.6c1.5-3.9,2.3-8,2.3-12.3C67.8,15.2,52.6,0,33.9,0S0,15.2,0,33.9z M3.9,33.8
		c0-16.5,13.4-29.9,29.9-29.9s29.9,13.4,29.9,29.9c0,3.8-0.6,7.4-2,10.9c-1.2,3.1-2.9,5.9-5.1,8.5c-0.5,0.6-0.6,1.4-0.3,2.1l3.9,9.1
		l-14.9-2.6c-0.3-0.1-0.7,0-1,0.1c-3.4,1.3-6.9,1.9-10.4,1.9C17.4,63.8,3.9,50.3,3.9,33.8z"/>
</g>
</svg>
