<?xml version="1.0" encoding="utf-8"?>
<!-- Generator: Adobe Illustrator 21.1.0, SVG Export Plug-In . SVG Version: 6.00 Build 0)  -->
<svg version="1.1" id="Layer_1" xmlns="http://www.w3.org/2000/svg" xmlns:xlink="http://www.w3.org/1999/xlink" x="0px" y="0px"
	 viewBox="0 0 92 52.5" style="enable-background:new 0 0 92 52.5;" xml:space="preserve">
<path d="M44,29c-0.7,0-1.3-0.1-1.9-0.2l-28.1-7V43c0,0.5,0.2,1,0.6,1.4c6,6,19.1,8.1,29.4,8.1c10.3,0,23.5-2.1,29.4-8.1
	C73.8,44,74,43.5,74,43V22.4l-28.2,6.4C45.2,28.9,44.6,29,44,29z"/>
<path d="M88.5,6l-44-6c-0.2,0-0.4,0-0.5,0c-0.2,0-0.4,0-0.6,0l-40,6C1.5,6.3,0.1,7.9,0,9.8c-0.1,1.9,1.2,3.6,3,4.1l40,10
	c0.3,0.1,0.6,0.1,1,0.1c0.3,0,0.6,0,0.9-0.1L79.6,16H82v24c0,1.1,0.9,2,2,2s2-0.9,2-2V14.6l2.9-0.7c1.9-0.4,3.2-2.1,3.1-4.1
	C91.9,7.9,90.5,6.3,88.5,6L88.5,6z"/>
</svg>
