<?xml version="1.0" encoding="utf-8"?>
<!-- Generator: Adobe Illustrator 21.1.0, SVG Export Plug-In . SVG Version: 6.00 Build 0)  -->
<svg fill="white" version="1.1" id="Layer_1" xmlns="http://www.w3.org/2000/svg" xmlns:xlink="http://www.w3.org/1999/xlink" x="0px" y="0px"
	 viewBox="0 0 96 93.1" style="enable-background:new 0 0 96 93.1;" xml:space="preserve">
<title>Artboard 20</title>
<path d="M0,18.5c0-2.5,2.1-4.6,4.6-4.6h49.3l-4.2,9.2H4.6C2.1,23.1,0,21,0,18.5z M0,75c0,2.5,2.1,4.6,4.6,4.6h24.7
	c0.1-3.1,0.4-6.2,0.9-9.2H4.6C2.1,70.4,0,72.4,0,75z M4.6,41.9h36.6l4.2-9.2H4.6c-2.5,0-4.6,2.1-4.6,4.6C0,39.8,2.1,41.9,4.6,41.9z
	 M0,56.1c0,2.5,2.1,4.6,4.6,4.6h28.3c0.5-1.4,1.1-2.7,1.7-4.1l2.3-5.1H4.6C2.1,51.5,0,53.5,0,56.1z M90.6,24l-5.1-2.3l2-4.4
	c3-5.9,0.6-13.1-5.4-16.1S69,0.7,66,6.6c-0.1,0.3-0.3,0.5-0.4,0.8L41.8,59.9c-4.4,9.6-5.6,20.3-3.5,30.7c0.3,1.7,2,2.8,3.7,2.5
	c0.3-0.1,0.7-0.2,1-0.4l0,0c9.1-5.3,16.4-13.2,20.8-22.8L82,29.4l5.1,2.3c0.4,0.2,0.5,0.6,0.4,1l-9.8,21.7c-1,2.1-0.1,4.7,2,5.7
	s4.7,0.1,5.7-2c0,0,0-0.1,0.1-0.1l9.8-21.7C97.3,31.6,95.2,26.1,90.6,24z"/>
</svg>
