<?xml version="1.0" encoding="utf-8"?>
<!-- Generator: Adobe Illustrator 21.1.0, SVG Export Plug-In . SVG Version: 6.00 Build 0)  -->
<svg version="1.1" id="Layer_1" xmlns="http://www.w3.org/2000/svg" xmlns:xlink="http://www.w3.org/1999/xlink" x="0px" y="0px"
	 viewBox="0 0 90 90" style="enable-background:new 0 0 90 90;" xml:space="preserve">
<path d="M87.5,20h-5v-2.5c0-1.4-1.1-2.5-2.5-2.5h-9.2c-3.6,0-7.1-0.6-10.5-1.7c-1.6-0.5-3.2-0.8-4.9-0.8c-3.5,0-6.8,1.2-9.5,3.3
	C40.9,6.2,31,0,20,0c-1.4,0-2.5,1.1-2.5,2.5V15H10c-1.4,0-2.5,1.1-2.5,2.5V20h-5C1.1,20,0,21.1,0,22.5V85c0,1.4,1.1,2.5,2.5,2.5h35
	c0,1.4,1.1,2.5,2.5,2.5h10c1.4,0,2.5-1.1,2.5-2.5h35c1.4,0,2.5-1.1,2.5-2.5V22.5C90,21.1,88.9,20,87.5,20z M47.5,21l0.5-0.5
	c2-2,4.6-3.1,7.4-3.1c1.1,0,2.2,0.2,3.3,0.5c3.9,1.3,8,2,12.1,2h6.7v52.5h-6.7c-3.6,0-7.1-0.6-10.5-1.7c-1.6-0.5-3.2-0.8-4.9-0.8
	c-2.8,0-5.5,0.7-7.9,2.1V21z M22.5,5.1c8.9,0.9,16.7,6.9,20,15.4v47.7c-4.9-6-12.1-9.9-20-10.6V5.1z M12.5,20h5v40
	c0,1.4,1.1,2.5,2.5,2.5c6.9,0,13.3,2.9,17.8,7.8c-2.6-0.5-5.4-0.4-8,0.5c-3.4,1.1-6.9,1.7-10.5,1.7h-6.7V20z M85,82.5H50
	c-1.4,0-2.5,1.1-2.5,2.5h-5c0-1.4-1.1-2.5-2.5-2.5H5V25h2.5v50c0,1.4,1.1,2.5,2.5,2.5h9.2c4.1,0,8.2-0.7,12.1-2
	c1.1-0.4,2.2-0.5,3.3-0.5c2.8,0,5.4,1.1,7.4,3.1l1.2,1.2c1,1,2.6,1,3.5,0l1.2-1.2c2-2,4.6-3.1,7.4-3.1c1.1,0,2.2,0.2,3.3,0.5
	c3.9,1.3,8,2,12.1,2H80c1.4,0,2.5-1.1,2.5-2.5V25H85V82.5z"/>
</svg>
