<svg xmlns="http://www.w3.org/2000/svg" xmlns:xlink="http://www.w3.org/1999/xlink" version="1.1" x="0px" y="0px" viewBox="0 0 100 100" enable-background="new 0 0 100 100" xml:space="preserve"><g><path d="M80.108,18.339L34.275,5.038c-0.511-0.143-1.049-0.047-1.486,0.279L19.237,15.634c-0.374,0.284-0.593,0.727-0.593,1.197   v62.705c0,1.415,0.935,2.66,2.295,3.054l42.647,12.358c1.255,0.364,2.509-0.578,2.509-1.885V30.317L22.283,17.617l11.876-9.042   l43.807,12.721v64.063c0,0.954,0.76,1.724,1.687,1.724c0.947,0,1.703-0.77,1.703-1.724V20.001   C81.356,19.231,80.847,18.554,80.108,18.339z"></path><polygon points="29.844,16.35 69.712,27.233 69.685,89.267 74.183,86.177 74.183,24.119 34.969,12.532  "></polygon></g></svg>