<?xml version="1.0" encoding="utf-8"?>
<!-- Generator: Adobe Illustrator 21.1.0, SVG Export Plug-In . SVG Version: 6.00 Build 0)  -->
<svg version="1.1" id="Layer_1" xmlns="http://www.w3.org/2000/svg" xmlns:xlink="http://www.w3.org/1999/xlink" x="0px" y="0px"
	 viewBox="0 0 65.8 74.8" style="enable-background:new 0 0 65.8 74.8;" xml:space="preserve">
<path d="M65.7,32.8c0-2.9-2.3-5.2-5.2-5.2c-2.9,0-5.2,2.3-5.2,5.2v3.1c0,0.5-0.4,0.9-0.9,0.9s-0.9-0.4-0.9-0.9v-9.2
	c0-2.9-2.3-5.2-5.2-5.2s-5.2,2.3-5.2,5.2v6.1c0,0.5-0.4,0.9-0.9,0.9s-0.9-0.4-0.9-0.9V20.6c0-2.9-2.3-5.2-5.2-5.2s-5.2,2.3-5.2,5.2
	v12.2c0,0.5-0.4,0.9-0.9,0.9s-0.9-0.4-0.9-0.9V5.2c0-2.9-2.3-5.2-5.2-5.2c-2.9,0-5.2,2.3-5.2,5.2v40.9c0,0.5-0.3,0.7-0.6,0.9
	c-0.3,0.2-0.7,0-1-0.2l-8.2-8.2l-0.1-0.1c-1.1-0.9-2.3-1.4-3.6-1.4c-1.5,0-2.7,0.5-3.7,1.5c-1,1-1.5,2.3-1.5,3.7
	C0,43.8,0.5,45,1.5,46l21.3,21.3c4.8,4.8,11.2,7.5,17.9,7.5c13.2,0,24.2-10.4,25.1-23.7l0-0.1L65.7,32.8z"/>
</svg>
