<svg xmlns="http://www.w3.org/2000/svg" width="230" height="400">
 <!-- Created with Method Draw - http://github.com/duopixel/Method-Draw/ -->

 <g>
  <g id="svg_52">
   <rect fill="#919191" stroke-width="1.5" x="08.5269" y="104.46842" width="48" height="189.0029" id="svg_1" stroke="null"/>
   <ellipse fill="#919191" stroke-width="5" stroke-opacity="null" cx="32.43202" cy="292.8014" id="svg_39" rx="24.27027" ry="24" stroke="null"/>
  </g>

  <rect fill="#919191" stroke-width="1.5" x="62.5269" y="104.46842" width="48" height="224.73042" id="svg_2" stroke="null"/>
  <ellipse fill="#919191" stroke-width="5" stroke-opacity="null" cx="86.48602" cy="328.92095" id="svg_40" rx="24.27027" ry="24" stroke="null"/>

  <g id="svg_48">
   <ellipse fill="#919191" stroke-width="5" stroke-opacity="null" cx="139.87334" cy="361.95049" id="svg_41" rx="24.27027" ry="24" stroke="null"/>
   <rect fill="#919191" stroke-width="1.5" x="115.86024" y="104.46842" width="48" height="259.45601" id="svg_4" stroke="null"/>
  </g>

  <g id="svg_46">
   <ellipse fill="#919191" stroke-width="5" stroke-opacity="null" cx="195.40482" cy="275.20201" id="svg_42" rx="24" ry="24" stroke="null"/>
   <rect fill="#919191" stroke-width="1.5" x="171.5269" y="106.46842" width="48" height="170.14245" id="svg_5" stroke="null"/>
  </g>

  <rect fill="#919191" stroke-width="1.5" x="08.5269" y="104.46842" width="210" height="110" id="svg_6" stroke="null"/>
  <ellipse fill="#919191" stroke-width="1.5" stroke-opacity="null" cx="114.0269" cy="107.0495" id="svg_8" rx="105.54054" ry="105" stroke="null"/>
  <path fill="#222224" stroke-width="5" d="m88.28058,137.08121c1.21737,18.97312 17.34753,21.08124 25.86913,21.08124c8.52159,0 24.04307,0.42163 27.99953,-20.23799" id="svg_26" stroke="#222224"/>
  <ellipse fill="#222224" stroke-width="5" cx="163.21572" cy="100.25201" id="svg_47" rx="11.62161" ry="11.62161"/>

  <ellipse fill="#222224" stroke-width="5" cx="64.70229" cy="100.11685" id="svg_28" rx="11.62161" ry="11.62161"/>
 </g>
</svg>