<?xml version="1.0" encoding="utf-8"?>
<!-- Generator: Adobe Illustrator 21.1.0, SVG Export Plug-In . SVG Version: 6.00 Build 0)  -->
<svg version="1.1" id="Layer_1" xmlns="http://www.w3.org/2000/svg" xmlns:xlink="http://www.w3.org/1999/xlink" x="0px" y="0px"
	 viewBox="0 0 100 75.1" style="enable-background:new 0 0 100 75.1;" xml:space="preserve">
<title>mail50</title>
<path d="M100,56.9c0-0.7,0-1.3,0-2c0-9.4,0-18.8,0-28.3c0-2-1.2-2.9-3.1-2.6c-0.5,0.1-0.9,0.3-1.3,0.5
	c-14.1,7.3-28.3,14.7-42.4,22.1c-1.9,1.1-4.4,1.1-6.3,0C32.7,39.2,18.5,31.8,4.3,24.5C1.8,23.1,0,24.2,0,27c0,9.8,0,19.6,0,29.3
	c0,0.2,0,0.4,0,0.6V65c0,5.5,4.5,10,10,10h4.9c0.3,0,0.6,0,0.9,0c11.4,0,22.8,0,34.2,0l0,0h6.6c9.3,0,18.6,0.1,27.8,0
	c0.1,0,0.2,0,0.3,0H90c5.5,0,10-4.5,10-10V56.9C100,57,100,56.9,100,56.9z"/>
<path d="M99,11.1c0-0.1,0-0.2,0-0.3c0-0.1,0-0.3,0-0.5C98.6,5,94.3,0,89,0h-8.1h-0.1c-10.3,0-20.6,0-31,0l0,0
	C39.6,0,29.5-0.1,19.4,0c-0.1,0-0.3,0-0.4,0h-8.1c-5.3,0-9.7,5.2-10,10.5c0,0.1,0,0.1,0,0.2s0,0.2,0,0.3l0,0c0.1,0.8,0.6,1.4,1.6,2
	l45.6,23.7c1.2,0.7,2.6,0.7,3.7,0C67,28.9,82,21.1,97.1,13.3C98.2,12.7,98.9,12,99,11.1L99,11.1z"/>
</svg>
