<?xml version="1.0" encoding="utf-8"?>
<!-- Generator: Adobe Illustrator 21.1.0, SVG Export Plug-In . SVG Version: 6.00 Build 0)  -->
<svg version="1.1" id="Layer_1" xmlns="http://www.w3.org/2000/svg" xmlns:xlink="http://www.w3.org/1999/xlink" x="0px" y="0px"
	 viewBox="0 0 65.1 65" style="enable-background:new 0 0 65.1 65;" xml:space="preserve">
<g>
	<g>
		<g>
			<path d="M0,46.8c0-4.7,1.8-9.3,5.3-12.9l9.3-9.3l2.8,2.8l-9.3,9.3c-5.5,5.5-5.5,14.5,0,20.1c5.5,5.5,14.5,5.5,20.1,0l9.3-9.2
				l2.8,2.8L31,59.7c-7.1,7.1-18.6,7.1-25.7,0C1.8,56.1,0,51.5,0,46.8z"/>
		</g>
		<g>
			<path d="M24.7,14.6L34,5.3c7.1-7.1,18.6-7.1,25.7,0s7.1,18.6,0,25.7l-9.3,9.3l-2.8-2.8l9.3-9.3c2.7-2.7,4.2-6.2,4.2-10
				s-1.5-7.4-4.2-10c-5.5-5.5-14.5-5.5-20.1,0l-9.3,9.3L24.7,14.6z"/>
		</g>
	</g>
	<g>
		<rect x="21.4" y="30.5" transform="matrix(0.7071 -0.7071 0.7071 0.7071 -13.4661 32.5127)" width="22.2" height="4"/>
	</g>
</g>
</svg>
