<?xml version="1.0" encoding="utf-8"?>
<!-- Generator: Adobe Illustrator 21.1.0, SVG Export Plug-In . SVG Version: 6.00 Build 0)  -->
<svg version="1.1" id="Layer_1" xmlns="http://www.w3.org/2000/svg" xmlns:xlink="http://www.w3.org/1999/xlink" x="0px" y="0px"
	 viewBox="0 0 78 90" style="enable-background:new 0 0 78 90;" xml:space="preserve">
<path d="M39,54c-8.3,0-15,4-15,10c0,6,0.8,12.1,2.4,17.4c0.9,3.1,2.8,7,2.8,7c0.4,0.9,1.7,1.6,2.8,1.6h14c1.1,0,2.3-0.7,2.8-1.6
	c0,0,1.9-3.9,2.8-7C53.2,76.1,54,70,54,64C54,58,47.3,54,39,54z"/>
<circle cx="39" cy="39" r="9"/>
<path d="M39,0C17.5,0,0,17.5,0,39c0,14,7.4,26.2,18.5,33.1C18.2,69.6,18,67,18,64.4C10.7,58.4,6,49.2,6,39C6,20.8,20.8,6,39,6
	s33,14.8,33,33c0,10.2-4.7,19.4-12,25.4c0,2.6-0.2,5.2-0.5,7.7C70.6,65.2,78,53,78,39C78,17.5,60.5,0,39,0z"/>
<path d="M25.9,51.3C22.9,48,21,43.7,21,39c0-9.9,8.1-18,18-18s18,8.1,18,18c0,4.7-1.9,9-4.9,12.3c1.8,1.1,3.4,2.4,4.6,3.9
	C60.6,50.9,63,45.2,63,39c0-13.2-10.8-24-24-24S15,25.8,15,39c0,6.2,2.4,11.9,6.2,16.1C22.5,53.6,24,52.3,25.9,51.3z"/>
</svg>
