<?xml version="1.0" encoding="utf-8"?>
<!-- Generator: Adobe Illustrator 21.1.0, SVG Export Plug-In . SVG Version: 6.00 Build 0)  -->
<svg version="1.1" id="Layer_1" xmlns="http://www.w3.org/2000/svg" xmlns:xlink="http://www.w3.org/1999/xlink" x="0px" y="0px"
	 viewBox="0 0 669.1 691.6" style="enable-background:new 0 0 669.1 691.6;" xml:space="preserve">
<path d="M355.8,539.3c-24-47.2-52.1-94.8-106.9-94.8c-10.5,0-21,1.7-30.6,6.1l-18.6-37.3c22.7-19.5,59.4-34.9,106.5-34.9
	c73.4,0,111,35.3,140.9,80.4c17.7-38.5,26.2-90.5,26.2-155c0-161-50.3-243.6-167.9-243.6c-115.9,0-165.9,82.6-165.9,243.6
	c0,160.1,50.1,241.9,165.9,241.9C323.8,545.8,340.4,543.7,355.8,539.3L355.8,539.3z M384.5,595.4c-25.4,6.8-52.4,10.6-79.1,10.6
	C151.1,606,0,482.9,0,303.9C0,123.1,151.1,0,305.3,0c156.9,0,306.5,122.3,306.5,303.9c0,101-47.1,183.1-115.7,236.2
	c22.1,33.2,44.9,55.2,76.7,55.2c34.6,0,48.6-26.8,50.9-47.8h45.1c2.6,27.9-11.3,144.1-137.4,144.1
	C455.1,691.6,414.8,647.3,384.5,595.4L384.5,595.4z"/>
</svg>
