<?xml version="1.0" encoding="utf-8"?>
<!-- Generator: Adobe Illustrator 21.1.0, SVG Export Plug-In . SVG Version: 6.00 Build 0)  -->
<svg version="1.1" id="Layer_1" xmlns="http://www.w3.org/2000/svg" xmlns:xlink="http://www.w3.org/1999/xlink" x="0px" y="0px"
	 viewBox="0 0 804.6 804.6" style="enable-background:new 0 0 804.6 804.6;" xml:space="preserve">
<g>
	<path d="M348.9,442.6c0-22.2-18.1-40.3-40.3-40.3c-22.2,0-40.3,18.1-40.3,40.3s18,40.1,40.3,40.3
		C330.8,482.9,348.9,464.8,348.9,442.6z"/>
	<path d="M486.3,538.7c-24.5,17.5-54.1,26.1-84.1,24.5c-30,1.4-59.5-7.6-83.7-25.3c-4.1-3.3-9.8-3.3-13.8,0
		c-4.6,3.8-5.3,10.7-1.5,15.3c28.6,21.5,63.6,32.5,99.4,31c35.8,1.5,70.8-9.5,99.4-31v1.6c4.4-4.3,4.5-11.5,0.2-15.9
		S490.7,534.4,486.3,538.7z"/>
	<path d="M402.3,0C180.1,0,0,180.1,0,402.3s180.1,402.3,402.3,402.3s402.3-180.1,402.3-402.3S624.5,0,402.3,0z M638.1,455.8
		c0.4,5.9,0.4,11.8,0,17.7c0,90.2-105,163.4-234.5,163.4s-234.5-73.3-234.5-163.4c-0.4-5.9-0.4-11.8,0-17.7
		c-5.9-2.6-11.2-6.3-15.8-10.6c-23.7-22.2-24.8-59.4-2.6-83c22.2-23.7,59.4-24.8,83-2.6c46.4-31.4,100.9-48.6,156.9-49.5l29.7-139.6
		c0-0.1,0-0.1,0-0.2c1.5-6.8,8.2-11,14.9-9.5l98.6,19.7c6.3-11,17.7-18.4,30.4-19.7c22.1-2.4,41.9,13.6,44.3,35.7
		c2.4,22.1-13.6,41.9-35.7,44.3c-22.1,2.4-41.9-13.6-44.3-35.7L442.4,187l-26.1,125.5c55.3,1.2,109.1,18.3,154.9,49.5
		c10.4-9.9,24.1-15.8,38.5-16.3c32.5-1.1,59.7,24.2,60.9,56.6C671,424.9,658.3,445.7,638.1,455.8z"/>
	<path d="M494.8,403.7c-22.2,0-40.3,18.1-40.3,40.3s18.1,40.3,40.3,40.3l-0.3,1.5c0.7,0,1.3,0,2,0c22.2-0.9,39.5-19.6,38.6-41.8
		C535.1,421.8,517,403.7,494.8,403.7z"/>
</g>
</svg>
