<?xml version="1.0" encoding="utf-8"?>
<!-- Generator: Adobe Illustrator 21.1.0, SVG Export Plug-In . SVG Version: 6.00 Build 0)  -->
<svg version="1.1"
	 id="Layer_1" xmlns:cc="http://creativecommons.org/ns#" xmlns:dc="http://purl.org/dc/elements/1.1/" xmlns:inkscape="http://www.inkscape.org/namespaces/inkscape" xmlns:rdf="http://www.w3.org/1999/02/22-rdf-syntax-ns#" xmlns:sodipodi="http://sodipodi.sourceforge.net/DTD/sodipodi-0.dtd" xmlns:svg="http://www.w3.org/2000/svg"
	 xmlns="http://www.w3.org/2000/svg" xmlns:xlink="http://www.w3.org/1999/xlink" x="0px" y="0px" viewBox="0 0 68 90"
	 style="enable-background:new 0 0 68 90;" xml:space="preserve">
<path d="M51,0c1.1,0,2,0.9,2,2v6c0,1.1-0.9,2-2,2H17c-1.1,0-2-0.9-2-2V2c0-1.1,0.9-2,2-2H51z"/>
<path d="M46,14v16l11.3,26.7C54,55.3,50.5,55,47.3,55c-5.4,0-9.8,2.8-13.8,5.3c-4,2.5-7.6,4.7-11.3,4.7c-5.5,0-7-0.4-12.8-5.4L22,30
	V14L46,14L46,14z"/>
<path d="M40.4,49.6c4.5,0,13.3,4,17,7.1L66,77c1.2,2.2,2,4.2,2,6c0,4.3-2.6,7-8,7H8c-5.4,0-8-2.7-8-7c0-1.8,0.8-3.8,2-6l7.4-17.4
	c5.5,4.6,7.8,1.6,13.3,1.6c5.3,0,2.7-3.1,6.6-5.6c4-2.5,5-2.6,9-2.6L40.4,49.6z"/>
</svg>
