<?xml version="1.0" encoding="utf-8"?>
<!-- Generator: Adobe Illustrator 21.1.0, SVG Export Plug-In . SVG Version: 6.00 Build 0)  -->
<svg version="1.1" id="Layer_1" xmlns="http://www.w3.org/2000/svg" xmlns:xlink="http://www.w3.org/1999/xlink" x="0px" y="0px"
	 viewBox="0 0 28 17.7" style="enable-background:new 0 0 28 17.7;" xml:space="preserve">
<style type="text/css">
	.st0{fill:#231F20;}
</style>
<path class="st0" d="M28,0.3c0,0.1,0,0.2-0.1,0.3s-0.1,0.1-0.2,0.1c-0.6,0.1-1.1,0.3-1.5,0.6s-0.8,1-1.2,1.9l-6.4,14.3
	c0,0.1-0.2,0.2-0.4,0.2c-0.1,0-0.3-0.1-0.3-0.2l-3.6-7.4l-4.1,7.4c-0.1,0.1-0.2,0.2-0.4,0.2s-0.3-0.1-0.4-0.2L3.3,3.2
	C2.9,2.3,2.5,1.7,2.1,1.4C1.7,1,1.1,0.8,0.3,0.7c-0.1,0-0.1,0-0.2-0.1S0,0.4,0,0.3C0,0.1,0.1,0,0.2,0c0.6,0,1.1,0,1.7,0.1
	c0.6,0,1.1,0.1,1.6,0.1s1.1,0,1.8-0.1S6.6,0,7.3,0c0.1,0,0.2,0.1,0.2,0.3s0,0.3-0.1,0.3c-0.6,0-1,0.2-1.3,0.4C5.8,1.2,5.6,1.6,5.6,2
	c0,0.2,0.1,0.4,0.2,0.8l5.1,11.7l3-5.6l-2.7-5.7c-0.5-1-0.9-1.7-1.2-2C9.6,0.9,9.1,0.8,8.4,0.7c-0.1,0-0.1,0-0.2-0.1
	c0-0.1,0-0.2,0-0.3C8.2,0.1,8.3,0,8.4,0C9,0,9.5,0,9.9,0.1s0.9,0.1,1.4,0.1s1,0,1.6-0.1S14,0,14.6,0c0.1,0,0.2,0.1,0.2,0.3
	s0,0.3-0.1,0.3C13.6,0.7,13,1,13,1.6c0,0.2,0.1,0.6,0.4,1.2l1.8,3.7L17,3.1c0.2-0.5,0.4-0.9,0.4-1.2c0-0.8-0.6-1.2-1.7-1.2
	c-0.1,0-0.1-0.1-0.1-0.3c0-0.1,0-0.2,0.1-0.2c0-0.2,0-0.2,0.1-0.2c0.4,0,0.9,0,1.5,0.1c0.6,0.1,1,0.1,1.4,0.1c0.3,0,0.6,0,1.1-0.1
	C20.4,0,20.9,0,21.3,0c0.1,0,0.1,0.1,0.1,0.3c0,0.3-0.1,0.4-0.3,0.4c-0.6,0.1-1.2,0.2-1.6,0.5s-0.9,1-1.5,2l-2.4,4.4l3.2,6.6
	l4.8-11.1C24,2.7,24.1,2.3,24.1,2c0-0.8-0.6-1.3-1.7-1.3c-0.1,0-0.1-0.1-0.1-0.3s0.1-0.3,0.2-0.3c0.4,0,0.9,0,1.4,0.1
	c0.5,0,0.9,0.1,1.3,0.1s0.8,0,1.3-0.1C27,0,27.4,0,27.8,0C27.9,0,28,0.1,28,0.3L28,0.3z"/>
</svg>
